normalP062_grf.mot
version=1
nRows=20
nColumns=19
inDegrees=yes
endheader
time	1_ground_force_vx	1_ground_force_vy	1_ground_force_vz	1_ground_force_px	1_ground_force_py	1_ground_force_pz	1_ground_torque_x	1_ground_torque_y	1_ground_torque_z	2_ground_force_vx	2_ground_force_vy	2_ground_force_vz	2_ground_force_px	2_ground_force_py	2_ground_force_pz	2_ground_torque_x	2_ground_torque_y	2_ground_torque_z
            1.677000	            7.110063	          435.461204	          -10.890910	            0.438396	            0.002060	           -0.158714	            0.016134	            0.988120	           -0.024713	           -0.001286	           -0.159484	           -0.021022	            0.905498	            0.001140	           -0.250018	            0.068246	           -0.003714	            0.057911
            1.678000	            7.258974	          436.414043	          -10.841971	            0.439042	            0.002058	           -0.158760	            0.016539	            0.994315	           -0.024702	            0.036546	           -0.399358	           -0.029818	            0.905498	            0.001140	           -0.250018	            0.051565	           -0.000758	            0.036933
            1.679000	            7.511702	          438.563587	          -10.812242	            0.438974	            0.002059	           -0.159091	            0.017659	            1.031013	           -0.025418	            0.037691	            0.160091	           -0.019392	            0.905498	            0.001140	           -0.250018	           -0.032011	            0.008571	           -0.108530
            1.680000	            7.767716	          439.515369	          -10.816809	            0.439709	            0.002057	           -0.159287	            0.018342	            1.037825	           -0.025542	            0.030624	            0.479980	            0.020499	            0.905498	            0.001140	           -0.250018	            0.102173	           -0.000088	            0.057593
            1.681000	            7.970391	          440.548778	          -10.913002	            0.440087	            0.002055	           -0.159234	            0.018951	            1.047503	           -0.025948	            0.021624	           -0.160149	           -0.005765	            0.905498	            0.001140	           -0.250018	            0.001196	            0.002160	            0.057654
            1.682000	            8.176459	          442.458782	          -10.792232	            0.440415	            0.002054	           -0.159095	            0.019607	            1.060993	           -0.025879	           -0.008299	            0.159936	           -0.027426	            0.905498	            0.001140	           -0.250018	            0.001334	           -0.010093	            0.016004
            1.683000	            8.461461	          443.013319	          -10.782745	            0.440941	            0.002052	           -0.159094	            0.020441	            1.070205	           -0.026048	            0.014074	           -0.079066	            0.002163	            0.905498	            0.001140	           -0.250018	            0.018562	            0.004516	           -0.171034
            1.684000	            8.650718	          444.524437	          -10.724408	            0.441345	            0.002050	           -0.159214	            0.021121	            1.085303	           -0.026184	            0.021397	           -0.319335	           -0.068205	            0.905498	            0.001140	           -0.250018	            0.001265	           -0.003048	           -0.025380
            1.685000	            8.954874	          446.116799	          -10.704052	            0.441304	            0.002050	           -0.158935	            0.022312	            1.111522	           -0.026670	            0.007714	            0.479313	           -0.056764	            0.905498	            0.001140	           -0.250018	           -0.032196	           -0.002924	            0.057433
            1.686000	            9.257388	          447.226389	          -10.647026	            0.442155	            0.002047	           -0.159087	            0.022636	            1.093540	           -0.026034	           -0.001252	           -0.079985	           -0.013361	            0.905498	            0.001140	           -0.250018	           -0.015408	            0.002216	           -0.004788
            1.687000	            9.501051	          448.977283	          -10.526644	            0.442246	            0.002047	           -0.159290	            0.023995	            1.133889	           -0.026585	            0.028950	           -0.319845	           -0.022172	            0.905498	            0.001140	           -0.250018	           -0.032272	           -0.006099	           -0.025538
            1.688000	            9.819408	          450.249459	          -10.415455	            0.442762	            0.002045	           -0.159321	            0.024992	            1.145946	           -0.026509	            0.006601	           -0.000282	           -0.013068	            0.905498	            0.001140	           -0.250018	           -0.099210	           -0.009930	           -0.108785
            1.689000	           10.121590	          451.280850	          -10.297298	            0.443032	            0.002044	           -0.159342	            0.026245	            1.170160	           -0.026701	            0.022778	            0.400044	           -0.018757	            0.905498	            0.001140	           -0.250018	            0.018375	           -0.002051	           -0.046377
            1.690000	           10.418824	          453.031685	          -10.223054	            0.443206	            0.002043	           -0.159249	            0.026549	            1.154404	           -0.026050	            0.005731	           -0.399138	           -0.022715	            0.905498	            0.001140	           -0.250018	            0.051695	            0.000122	           -0.004698
            1.691000	           10.738118	          454.541728	          -10.111056	            0.443686	            0.002042	           -0.159511	            0.027922	            1.181949	           -0.026292	           -0.032113	           -0.159900	           -0.029354	            0.905498	            0.001140	           -0.250018	           -0.065631	            0.006724	           -0.067231
            1.692000	           11.066894	          456.531123	           -9.951711	            0.443828	            0.002042	           -0.159500	            0.029173	            1.203434	           -0.026233	            0.005663	           -0.400113	           -0.007399	            0.905498	            0.001140	           -0.250018	           -0.082528	            0.006286	           -0.046449
            1.693000	           11.420280	          457.004847	           -9.950157	            0.444586	            0.002038	           -0.159299	            0.030231	            1.209767	           -0.026340	            0.044521	           -0.159972	           -0.013924	            0.905498	            0.001140	           -0.250018	            0.001164	            0.001406	            0.016298
            1.694000	           11.733258	          458.833564	           -9.745428	            0.444774	            0.002039	           -0.159623	            0.031214	            1.220637	           -0.025926	            0.005895	           -0.319329	           -0.045640	            0.905498	            0.001140	           -0.250018	            0.034671	           -0.001853	            0.016403
            1.695000	           12.099740	          460.741733	           -9.639915	            0.445161	            0.002037	           -0.159559	            0.032846	            1.250736	           -0.026169	           -0.008818	            0.000632	           -0.013315	            0.905498	            0.001140	           -0.250018	            0.101880	           -0.001389	            0.057945
            1.696000	           12.492748	          461.533608	           -9.560864	            0.445988	            0.002034	           -0.159641	            0.033691	            1.244667	           -0.025784	           -0.001499	           -0.159186	           -0.021844	            0.905498	            0.001140	           -0.250018	            0.034952	            0.001404	           -0.066830
